<?xml version="1.0" standalone="no"?>
<!DOCTYPE svg PUBLIC "-//W3C//DTD SVG 20010904//EN"
 "http://www.w3.org/TR/2001/REC-SVG-20010904/DTD/svg10.dtd">
<svg version="1.0" xmlns="http://www.w3.org/2000/svg"
 width="1046.000000pt" height="1280.000000pt" viewBox="0 0 1046.000000 1280.000000"
 preserveAspectRatio="xMidYMid meet">
<metadata>
Created by potrace 1.15, written by Peter Selinger 2001-2017
</metadata>
<g transform="translate(0.000000,1280.000000) scale(0.100000,-0.100000)"
fill="#000000" stroke="none">
<path d="M5282 12455 c-232 -51 -402 -232 -496 -530 -86 -271 -100 -616 -39
-939 14 -74 23 -96 54 -133 38 -46 49 -79 49 -142 -1 -77 -79 -187 -162 -228
-48 -23 -123 -40 -114 -25 3 5 -12 23 -34 41 -56 45 -100 144 -160 361 -68
246 -131 430 -193 564 -49 107 -75 154 -62 111 3 -11 -1 -8 -10 8 -9 15 -13
33 -9 39 4 6 3 8 -3 5 -13 -8 -26 20 -16 35 3 7 1 8 -5 4 -7 -4 -18 7 -28 26
-76 148 -249 334 -377 407 -116 65 -146 73 -263 69 -92 -3 -107 -6 -175 -40
-108 -54 -181 -120 -341 -306 -78 -92 -166 -191 -196 -220 -120 -119 -237
-184 -370 -207 -137 -24 -223 -69 -319 -167 -103 -105 -164 -243 -162 -367 1
-77 12 -113 55 -174 35 -49 128 -102 199 -114 36 -6 37 -7 15 -13 -21 -6 -13
-11 48 -30 60 -18 89 -22 155 -18 145 8 217 59 331 232 137 209 186 241 443
291 227 45 292 50 379 31 82 -17 138 -43 189 -87 27 -24 34 -27 30 -13 -3 11
5 -1 16 -26 36 -74 46 -189 26 -308 -32 -190 -18 -381 39 -564 14 -46 75 -196
134 -335 177 -411 216 -557 207 -773 -6 -148 -30 -250 -87 -365 -70 -141 -154
-227 -320 -326 -96 -57 -234 -111 -474 -185 -376 -116 -447 -150 -533 -258
-156 -194 -417 -349 -703 -418 -106 -25 -320 -35 -416 -19 -92 16 -200 51
-184 61 9 5 9 9 1 14 -19 12 -58 98 -70 154 -36 169 31 457 173 741 111 222
180 325 366 538 132 151 188 245 220 371 44 174 44 466 0 643 -22 90 -48 154
-50 124 0 -11 -11 12 -24 50 -66 204 -178 317 -315 319 -31 0 -72 -3 -91 -7
l-35 -7 -1 -93 c-3 -166 -48 -338 -139 -522 -29 -60 -130 -237 -223 -391 -174
-290 -241 -425 -287 -580 -60 -200 -123 -352 -295 -714 -194 -406 -267 -604
-305 -824 -15 -86 -22 -247 -15 -338 15 -195 103 -308 308 -395 34 -14 45 -22
27 -19 l-30 6 35 -20 c109 -61 307 -102 590 -120 170 -11 536 -35 695 -46 168
-11 304 -53 392 -120 18 -14 37 -22 43 -19 14 8 95 -106 142 -200 57 -112 101
-231 138 -367 17 -64 48 -154 70 -200 48 -103 83 -225 107 -365 19 -117 23
-425 13 -1008 -7 -409 10 -663 95 -1395 66 -572 69 -913 13 -1265 -21 -126
-23 -171 -21 -455 2 -347 6 -405 29 -396 8 3 58 8 112 11 53 2 86 1 72 -3 -24
-7 -23 -9 20 -26 49 -20 140 -29 480 -46 118 -7 283 -16 365 -21 90 -5 183 -5
232 1 90 10 199 49 168 60 -11 4 9 11 54 19 l71 13 0 56 c0 33 -8 74 -19 97
-25 57 -110 129 -200 171 -247 117 -322 156 -369 193 -29 23 -50 46 -47 51 3
5 -6 27 -20 50 -55 88 -104 247 -137 445 -19 121 -16 589 6 795 40 382 56 542
65 665 16 204 39 751 51 1205 18 707 29 962 44 1055 53 317 256 763 473 1039
123 156 255 272 530 465 205 144 335 276 469 476 145 219 260 475 374 835 131
417 160 488 249 628 66 103 185 216 279 265 99 52 199 75 402 92 225 20 268
25 675 90 523 83 603 92 1140 127 99 6 380 13 625 14 483 3 549 9 658 59 32
14 70 38 85 53 33 31 68 90 45 76 -7 -4 11 18 40 50 67 74 79 96 55 96 -35 0
-83 35 -122 90 -22 30 -53 72 -68 93 -43 60 -87 77 -229 90 -216 19 -515 -7
-1014 -88 -216 -36 -232 -37 -400 -32 -173 6 -248 16 -685 91 -230 39 -351 49
-528 43 -179 -7 -235 -18 -432 -87 -189 -66 -321 -90 -523 -97 -187 -6 -296 4
-412 39 -64 20 -180 73 -180 83 0 3 9 1 20 -5 18 -10 17 -7 -4 25 -38 56 -49
122 -30 187 26 88 63 128 259 283 183 145 291 253 374 374 107 156 172 315
223 546 18 84 22 132 22 295 1 175 -1 203 -22 274 -13 44 -30 85 -39 91 -11 8
-14 19 -9 31 4 10 4 15 0 11 -4 -3 -27 35 -52 86 -82 168 -239 294 -433 346
-149 40 -322 51 -437 26z m935 -537 c-3 -8 -6 -5 -6 6 -1 11 2 17 5 13 3 -3 4
-12 1 -19z m-2057 -463 c0 -5 -5 -3 -10 5 -5 8 -10 20 -10 25 0 6 5 3 10 -5 5
-8 10 -19 10 -25z"/>
<path d="M2381 6133 c7 -12 15 -20 18 -17 3 2 -3 12 -13 22 -17 16 -18 16 -5
-5z"/>
<path d="M3900 1076 c0 -2 8 -10 18 -17 15 -13 16 -12 3 4 -13 16 -21 21 -21
13z"/>
</g>
</svg>
