<?xml version="1.0" standalone="no"?>
<!DOCTYPE svg PUBLIC "-//W3C//DTD SVG 20010904//EN"
 "http://www.w3.org/TR/2001/REC-SVG-20010904/DTD/svg10.dtd">
<svg version="1.0" xmlns="http://www.w3.org/2000/svg"
 width="1280.000000pt" height="953.000000pt" viewBox="0 0 1280.000000 953.000000"
 preserveAspectRatio="xMidYMid meet">
<g transform="translate(0.000000,953.000000) scale(0.100000,-0.100000)"
fill="#000000" stroke="none">
<path d="M6305 9509 c-224 -42 -381 -120 -517 -253 -148 -147 -240 -375 -223
-556 16 -166 68 -290 240 -565 65 -104 135 -226 156 -270 40 -85 75 -205 66
-228 -4 -10 -36 -16 -114 -20 -59 -4 -346 -31 -638 -62 -291 -30 -746 -78
-1010 -105 -264 -28 -653 -69 -864 -91 l-383 -40 -77 79 c-42 44 -96 89 -119
101 -61 31 -160 38 -242 17 -133 -33 -302 -140 -377 -239 -16 -20 -35 -39 -43
-42 -23 -9 -579 -66 -614 -63 l-31 3 -80 517 c-44 284 -84 520 -87 524 -4 3
-73 -4 -153 -16 l-146 -23 5 -36 c14 -84 243 -1569 318 -2056 44 -291 84 -534
89 -539 7 -8 286 28 297 38 2 2 -42 297 -98 656 -56 359 -98 656 -93 660 8 8
510 70 564 70 14 0 36 -11 49 -25 13 -14 127 -76 254 -139 507 -252 766 -431
994 -689 116 -131 184 -188 288 -240 102 -51 182 -70 299 -70 233 -1 389 98
523 330 57 97 121 159 210 201 222 106 533 0 684 -232 50 -78 74 -158 83 -281
8 -111 26 -209 80 -425 60 -243 63 -383 10 -495 -36 -76 -124 -153 -387 -341
-366 -261 -482 -362 -592 -519 -219 -311 -312 -764 -230 -1126 29 -129 56
-189 172 -375 66 -106 97 -229 151 -609 22 -154 58 -368 80 -475 91 -448 84
-511 -72 -678 -154 -166 -219 -288 -219 -413 0 -168 119 -272 362 -318 90 -17
311 -29 378 -20 160 22 222 107 252 343 6 46 4 112 -5 205 -27 258 -18 349 55
551 86 237 124 496 102 697 -23 216 -49 276 -240 542 -193 270 -240 379 -229
527 10 137 62 199 297 357 185 125 251 193 322 332 31 61 88 187 127 282 92
225 133 305 181 353 45 45 93 58 151 41 79 -24 122 -78 265 -333 215 -383 297
-460 734 -692 290 -154 316 -187 274 -349 -38 -146 -93 -220 -266 -352 -184
-142 -239 -218 -294 -402 -23 -80 -25 -99 -20 -203 3 -63 23 -257 45 -430 56
-452 67 -643 51 -895 -15 -234 -10 -297 29 -382 51 -108 136 -173 272 -208 72
-19 75 -19 315 24 208 37 270 59 318 111 38 42 66 120 66 181 0 49 -22 66
-211 157 -177 85 -250 146 -301 250 -32 64 -33 71 -32 182 1 153 23 226 164
525 60 129 139 305 175 392 114 274 409 1073 440 1194 29 111 16 297 -30 434
-89 265 -346 592 -629 799 -79 58 -111 77 -305 192 -153 89 -250 173 -289 248
-34 68 -42 209 -17 341 42 228 185 747 250 908 118 294 247 423 388 387 71
-19 132 -69 288 -238 284 -308 435 -409 629 -420 203 -11 373 82 824 454 381
313 481 389 636 485 151 92 238 172 334 307 24 32 45 52 58 52 32 0 732 -192
746 -204 10 -10 -11 -119 -108 -562 -66 -302 -125 -571 -131 -597 -6 -26 -9
-51 -5 -54 7 -8 245 -62 273 -63 19 0 24 10 42 93 11 50 111 504 221 1007 110
503 229 1046 265 1205 35 160 61 293 57 297 -9 9 -284 69 -290 63 -5 -5 -17
-58 -163 -725 -50 -228 -95 -419 -100 -424 -6 -6 -34 -2 -76 12 -38 12 -192
58 -343 102 -151 44 -278 84 -282 88 -3 4 0 36 9 72 23 98 14 231 -19 296 -54
104 -183 183 -313 192 -145 9 -254 -47 -426 -220 l-116 -116 -174 39 c-499
111 -878 140 -1997 155 l-513 7 -24 31 c-59 77 -73 168 -41 264 18 54 59 112
153 216 60 67 134 209 157 302 77 303 3 637 -184 836 -108 116 -218 172 -419
214 -136 28 -181 29 -316 3z m2035 -2175 c301 -18 542 -39 754 -65 168 -20
364 -54 374 -64 19 -18 -111 -171 -247 -292 -114 -100 -287 -219 -391 -267
-161 -74 -294 -85 -384 -32 -57 33 -86 71 -131 171 -111 248 -219 381 -403
500 -51 32 -92 63 -92 68 0 10 128 6 520 -19z m-3503 -59 c5 -15 -190 -110
-422 -205 -110 -45 -281 -119 -380 -166 -99 -46 -212 -91 -250 -100 -124 -29
-247 -5 -359 69 -106 71 -228 199 -209 218 6 6 356 50 779 99 423 50 778 92
789 94 30 5 48 2 52 -9z"/>
<path d="M641 7909 c-63 -11 -117 -22 -120 -24 -2 -3 12 -112 32 -243 190
-1228 308 -1986 311 -1989 1 -2 67 7 145 19 92 14 145 27 148 35 3 8 -15 147
-41 311 -25 163 -100 646 -165 1072 -66 426 -123 790 -126 808 -7 39 -14 39
-184 11z"/>
<path d="M12001 7827 c-5 -12 -16 -56 -24 -97 -9 -41 -116 -527 -237 -1079
-121 -553 -217 -1008 -213 -1012 9 -8 285 -70 290 -65 8 7 483 2192 479 2202
-2 6 -17 14 -33 17 -15 3 -79 17 -141 31 l-113 24 -8 -21z"/>
<path d="M160 7614 c-168 -27 -153 -21 -146 -57 4 -18 67 -423 141 -901 74
-478 136 -870 138 -872 5 -5 287 42 294 49 3 4 -28 231 -71 504 -42 274 -105
677 -138 896 l-62 397 -35 -1 c-20 -1 -74 -7 -121 -15z"/>
<path d="M12486 7508 c-15 -44 -388 -1769 -384 -1774 7 -7 288 -67 293 -63 2
3 85 376 184 829 100 454 187 852 195 885 8 33 12 63 8 67 -4 3 -63 18 -132
33 -69 14 -133 29 -143 31 -9 3 -19 -1 -21 -8z"/>
</g>
</svg>
