<?xml version="1.0" standalone="no"?>
<!DOCTYPE svg PUBLIC "-//W3C//DTD SVG 20010904//EN"
 "http://www.w3.org/TR/2001/REC-SVG-20010904/DTD/svg10.dtd">
<svg version="1.0" xmlns="http://www.w3.org/2000/svg"
 width="1280.000000pt" height="834.000000pt" viewBox="0 0 1280.000000 834.000000"
 preserveAspectRatio="xMidYMid meet">
<g transform="translate(0.000000,834.000000) scale(0.100000,-0.100000)"
fill="#000000" stroke="none">
<path d="M10665 8316 c-62 -28 -120 -91 -136 -148 -16 -56 -20 -59 -114 -100
-44 -19 -629 -353 -1300 -742 -1223 -709 -1273 -740 -1336 -828 l-20 -28 56
-95 c40 -69 61 -95 75 -95 17 0 20 -7 20 -46 0 -86 72 -164 151 -164 42 0 111
42 131 80 43 83 -1 188 -95 223 -9 3 -8 9 3 20 8 9 555 329 1215 711 1055 612
1201 694 1214 681 8 -8 203 -338 432 -732 l417 -718 32 3 c28 3 32 1 25 -15
-33 -82 -30 -124 12 -173 50 -60 117 -76 183 -42 126 63 97 256 -42 278 -47 8
-56 19 -28 36 11 7 20 18 20 24 0 6 -79 147 -175 313 -97 166 -173 306 -170
311 15 24 55 8 100 -39 93 -98 218 -107 316 -22 160 136 64 394 -146 394 -89
0 -155 -39 -209 -126 -17 -27 -19 -28 -98 -25 l-81 3 -174 299 c-96 165 -172
304 -170 311 3 6 22 16 43 23 90 27 154 115 154 213 -1 100 -49 171 -148 215
-65 29 -93 29 -157 0z"/>
<path d="M1730 7957 c0 -235 -3 -297 -14 -312 -12 -16 -16 -17 -30 -6 -13 11
-16 48 -18 250 l-3 236 -85 0 -85 0 -3 -240 c-2 -176 -6 -241 -15 -247 -6 -4
-157 -8 -334 -8 l-323 0 0 -30 0 -30 333 -2 332 -3 5 -250 5 -250 87 -3 88 -3
2 253 c3 238 4 253 22 256 10 2 22 -2 27 -10 5 -7 9 -149 9 -315 l0 -303 110
0 110 0 2 313 3 312 1719 3 c1262 1 1722 -1 1732 -9 11 -9 14 -72 14 -315 l0
-304 110 0 110 0 2 313 c3 304 3 312 23 312 19 0 20 -8 25 -250 l5 -250 88 -3
87 -3 0 240 c0 132 3 246 6 255 5 14 44 16 334 16 319 0 329 1 335 20 3 11 3
24 0 30 -4 6 -123 10 -329 10 -257 0 -326 3 -335 13 -7 9 -12 96 -13 248 l-3
234 -73 3 c-46 2 -79 -2 -88 -9 -11 -9 -14 -56 -14 -244 0 -185 -3 -234 -13
-238 -34 -13 -37 6 -39 308 l-3 300 -107 3 -108 3 0 -291 c0 -182 -4 -299 -10
-311 -11 -19 -40 -19 -1723 -19 -942 0 -1718 4 -1724 8 -10 6 -13 83 -15 307
l-3 300 -107 3 -108 3 0 -294z"/>
<path d="M2787 6476 c-46 -17 -99 -57 -126 -94 -37 -52 -43 -106 -39 -357 l3
-240 27 -47 c47 -78 157 -140 222 -124 37 9 96 65 114 106 9 20 18 81 21 145
l6 110 386 3 386 2 6 -110 c9 -153 44 -224 124 -251 80 -26 207 47 247 143 13
31 16 84 16 290 0 287 -4 303 -77 369 -82 74 -170 86 -234 31 -50 -42 -69 -96
-76 -222 l-6 -110 -386 2 -386 3 -5 110 c-5 87 -11 120 -29 157 -39 82 -113
114 -194 84z"/>
<path d="M2580 4749 c-25 -4 -58 -12 -75 -19 -41 -15 -95 -69 -95 -94 0 -12
-8 -42 -17 -68 -15 -42 -15 -54 -4 -100 8 -29 14 -75 14 -102 0 -34 5 -54 18
-67 10 -10 21 -35 25 -56 4 -21 13 -47 20 -58 19 -27 18 -41 -7 -75 -15 -20
-20 -37 -16 -57 3 -17 -2 -43 -15 -68 -17 -35 -21 -70 -28 -259 -5 -120 -13
-223 -18 -228 -18 -18 -32 2 -32 45 0 24 -11 66 -26 97 -36 78 -39 81 -74 64
-38 -20 -66 -66 -79 -134 -10 -55 -10 -55 23 -86 18 -17 39 -35 47 -40 8 -5
41 -45 74 -88 64 -85 162 -166 201 -166 17 0 24 -6 24 -18 0 -11 10 -27 21
-38 41 -36 59 -98 74 -252 19 -189 18 -280 -1 -367 -8 -38 -18 -88 -21 -110
-3 -22 -50 -128 -104 -235 -118 -236 -189 -408 -189 -458 0 -20 7 -59 15 -86
8 -27 15 -70 15 -97 0 -34 4 -49 16 -53 18 -7 19 17 -6 -331 -13 -178 -30
-264 -66 -345 -25 -56 -28 -59 -69 -66 -24 -3 -48 -3 -54 1 -6 3 -11 2 -11 -4
0 -6 -12 -22 -27 -35 -22 -20 -25 -28 -15 -38 27 -27 13 -56 -45 -97 -50 -37
-62 -41 -115 -41 -57 0 -59 -1 -69 -30 -11 -30 -12 -30 -84 -30 l-73 0 -28 56
c-75 148 -247 276 -467 348 -141 46 -242 58 -452 54 -185 -3 -190 -2 -188 17
1 11 112 391 247 845 134 454 274 929 311 1055 38 127 73 236 80 243 10 11 21
7 61 -17 l49 -30 343 -21 c223 -13 350 -16 362 -10 26 14 31 47 11 72 -17 20
-34 22 -327 39 -170 10 -322 20 -339 22 -19 2 -177 105 -435 282 -223 153
-417 283 -432 289 -22 8 -31 7 -47 -9 -48 -42 -35 -54 259 -254 107 -73 203
-141 213 -150 17 -16 7 -52 -218 -787 -130 -423 -337 -1100 -461 -1504 -124
-404 -231 -752 -239 -773 -8 -20 -15 -40 -15 -42 0 -3 51 -5 114 -5 63 0 121
-3 130 -6 13 -5 16 -23 16 -90 l0 -84 425 0 425 0 0 78 c0 47 5 83 12 90 16
16 3129 18 3159 2 16 -9 19 -22 19 -90 l0 -80 205 0 205 0 0 74 c0 110 -10
106 251 106 l220 0 -3 138 -3 137 -1322 3 -1323 2 0 25 c0 27 -44 163 -66 207
-22 42 -17 74 32 213 25 72 62 177 81 235 l35 105 -6 200 c-7 196 -6 201 16
245 33 65 106 160 123 160 8 0 51 -77 104 -184 85 -173 93 -186 134 -211 64
-37 250 -105 289 -105 47 0 337 -121 417 -174 92 -62 116 -89 117 -136 0 -45
38 -106 70 -114 14 -4 29 -23 42 -53 31 -74 34 -95 18 -141 -17 -47 -13 -68
15 -82 107 -58 199 130 164 336 -5 32 -3 48 12 70 25 39 27 209 2 227 -12 9
-51 10 -140 5 -68 -4 -133 -5 -143 -1 -31 9 -215 150 -288 219 -75 72 -123 97
-251 130 -95 24 -119 39 -147 94 -34 68 -73 220 -67 264 9 63 95 322 112 336
9 7 57 17 107 21 50 5 96 13 101 18 5 5 -6 67 -27 152 -19 79 -38 163 -41 187
-7 44 -57 191 -119 349 -20 51 -48 141 -62 199 -29 121 -25 134 37 134 58 0
240 29 338 53 86 22 86 22 95 60 8 30 6 45 -8 71 -34 63 -92 131 -151 175 -33
25 -85 72 -115 105 -163 177 -218 216 -340 242 -96 20 -157 51 -169 86 -6 15
-21 32 -35 38 -34 13 -34 44 1 97 28 44 58 63 99 63 17 0 28 7 31 20 3 10 14
22 25 26 18 5 20 12 14 52 -3 25 -12 49 -19 54 -7 4 -12 31 -13 65 -1 32 -6
77 -13 101 -11 38 -15 42 -45 42 -31 0 -32 -2 -28 -30 4 -27 2 -30 -23 -30
-14 0 -59 15 -98 33 -84 39 -124 47 -187 36z m763 -1125 c26 -19 47 -39 47
-45 0 -25 -187 -80 -223 -66 -14 5 -17 20 -17 77 0 62 3 74 25 96 l25 25 48
-26 c26 -14 68 -41 95 -61z"/>
<path d="M6433 4032 c-35 -8 -63 -20 -63 -26 0 -14 230 -411 299 -516 l56 -85
-1 -100 c-1 -93 -9 -134 -122 -585 -66 -267 -126 -525 -133 -575 -15 -115 -6
-311 20 -430 23 -105 59 -213 290 -866 94 -267 171 -495 171 -505 0 -10 -43
-77 -95 -149 -51 -72 -90 -134 -86 -138 4 -4 44 -5 89 -1 l80 7 57 68 58 69
885 0 885 0 78 -70 77 -70 76 0 c42 0 76 3 76 6 0 3 -43 51 -95 107 -52 55
-95 106 -95 112 0 7 31 77 69 156 235 489 264 825 82 919 -91 46 -299 100
-583 151 -95 17 -176 35 -179 40 -3 6 13 105 36 222 67 339 183 934 200 1032
9 50 18 98 21 107 4 12 45 30 137 59 159 51 169 58 141 96 -12 16 -30 29 -42
31 -12 2 -81 -13 -155 -32 -134 -36 -135 -36 -350 -36 l-215 0 -12 -31 c-9
-21 -10 -33 -2 -41 5 -5 87 -15 180 -22 94 -6 174 -14 177 -18 11 -11 -317
-1331 -336 -1354 -5 -6 -44 -14 -86 -17 -194 -16 -376 -102 -526 -251 -81 -79
-164 -190 -264 -352 -89 -145 -99 -156 -119 -129 -21 28 -282 501 -348 630
-139 271 -170 542 -98 870 29 134 221 931 242 1006 16 58 32 66 90 45 60 -22
94 -18 98 9 2 17 -22 37 -121 102 -73 48 -139 100 -160 125 -19 24 -96 134
-171 246 -76 111 -140 201 -144 201 -4 -1 -35 -8 -69 -17z"/>
<path d="M11449 2730 c-426 -43 -793 -291 -985 -666 -78 -155 -120 -313 -130
-497 -35 -620 413 -1172 1029 -1272 672 -109 1309 354 1412 1028 31 205 31
205 -12 430 -78 409 -390 768 -791 911 -154 55 -369 82 -523 66z"/>
</g>
</svg>
