<?xml version="1.0" standalone="no"?>
<!DOCTYPE svg PUBLIC "-//W3C//DTD SVG 20010904//EN"
 "http://www.w3.org/TR/2001/REC-SVG-20010904/DTD/svg10.dtd">
<svg version="1.0" xmlns="http://www.w3.org/2000/svg"
 width="1280.000000pt" height="1218.000000pt" viewBox="0 0 1280.000000 1218.000000"
 preserveAspectRatio="xMidYMid meet">
<g transform="translate(0.000000,1218.000000) scale(0.100000,-0.100000)"
fill="#000000" stroke="none">
<path d="M9852 12155 c-76 -28 -120 -58 -160 -108 -17 -21 -135 -282 -277
-615 -230 -535 -248 -582 -253 -647 -9 -155 68 -259 249 -335 161 -68 265 -68
371 -1 69 44 95 86 194 316 49 114 95 209 101 212 16 6 194 -68 200 -83 2 -7
-16 -52 -40 -100 -24 -49 -93 -197 -152 -329 -60 -132 -161 -343 -225 -470
-64 -126 -286 -563 -492 -970 -456 -901 -612 -1188 -777 -1434 -166 -246 -308
-377 -469 -433 -62 -21 -84 -23 -307 -23 l-240 -1 -99 -33 c-55 -18 -205 -77
-335 -131 -381 -157 -508 -199 -681 -225 -239 -37 -394 -1 -841 191 -244 105
-418 167 -519 184 -102 18 -480 24 -614 11 -223 -24 -444 -81 -610 -160 -156
-74 -285 -183 -553 -466 -89 -93 -212 -217 -275 -275 -62 -58 -229 -220 -371
-360 -194 -190 -261 -251 -267 -240 -4 8 -10 175 -14 370 -6 380 -17 646 -41
990 -8 118 -18 274 -21 346 -7 127 -6 132 14 143 22 11 228 16 256 5 14 -5 16
-36 16 -243 0 -250 7 -296 51 -367 30 -50 95 -101 156 -124 78 -29 288 -29
367 0 72 27 139 88 173 158 l28 57 0 665 c0 632 -1 668 -19 715 -27 69 -93
137 -167 170 -59 26 -65 27 -212 23 -141 -3 -156 -5 -203 -30 -60 -32 -118
-93 -148 -157 -19 -42 -21 -67 -26 -321 l-5 -275 -142 -3 c-164 -3 -147 -15
-158 113 -12 141 -48 230 -115 288 -121 104 -484 112 -756 16 -209 -73 -303
-161 -360 -337 l-26 -83 -132 3 -131 3 -6 270 c-5 256 -10 301 -39 354 -23 44
-85 103 -134 129 -47 25 -62 27 -203 30 -146 4 -154 3 -211 -23 -81 -36 -136
-95 -172 -184 l-30 -73 0 -621 0 -622 27 -70 c35 -91 104 -163 186 -193 80
-30 291 -32 367 -3 65 25 112 61 149 114 53 78 61 126 61 383 0 202 2 233 16
238 30 12 200 6 216 -6 13 -11 17 -47 22 -198 3 -102 13 -279 21 -394 8 -114
19 -378 25 -585 36 -1334 98 -1794 290 -2160 98 -185 257 -322 425 -366 123
-32 355 -16 566 39 321 84 531 188 775 387 304 248 801 725 1069 1027 65 73
123 131 129 129 8 -3 12 -721 14 -2680 l2 -2677 2030 0 2030 0 0 2733 c0 1502
4 2737 8 2743 4 5 28 18 55 28 133 50 313 245 608 657 551 772 1971 3246 2330
4058 34 79 68 145 75 148 14 5 222 -82 242 -101 10 -10 -4 -52 -80 -227 l-93
-214 0 -90 c0 -102 18 -150 83 -219 43 -45 186 -117 282 -142 134 -34 277 24
344 138 33 58 489 1118 512 1190 16 54 16 59 -1 120 -38 137 -93 194 -250 260
-128 53 -180 63 -256 47 -76 -16 -117 -39 -170 -96 -37 -40 -61 -86 -144 -280
-55 -128 -105 -235 -111 -237 -6 -2 -68 21 -138 52 l-128 55 5 31 c3 17 14 77
26 134 35 172 26 266 -39 399 -65 132 -178 214 -366 264 -106 29 -300 31 -394
5 -142 -39 -272 -134 -360 -264 -19 -28 -39 -53 -45 -55 -14 -5 -223 84 -228
97 -2 6 41 115 97 241 l100 230 1 90 c0 79 -4 96 -27 141 -51 97 -168 173
-353 229 -65 19 -78 19 -153 -10z"/>
<path d="M6395 10753 c-312 -37 -577 -140 -806 -312 -312 -235 -522 -568 -606
-961 -28 -132 -26 -499 4 -632 72 -317 207 -564 437 -794 187 -186 360 -296
595 -378 191 -67 278 -80 521 -80 237 0 317 12 503 74 575 193 992 703 1068
1307 17 134 7 392 -20 516 -128 601 -574 1067 -1163 1218 -157 40 -397 59
-533 42z"/>
</g>
</svg>
